<svg xmlns="http://www.w3.org/2000/svg" xmlns:xlink="http://www.w3.org/1999/xlink" width="42" height="42" viewBox="0 0 42 42">
  <defs>
    <clipPath id="clip-path">
      <rect id="Rectángulo_361277" data-name="Rectángulo 361277" width="42" height="42" transform="translate(612 1047)" fill="#fe502d"/>
    </clipPath>
  </defs>
  <g id="Enmascarar_grupo_998590" data-name="Enmascarar grupo 998590" transform="translate(-612 -1047)" clip-path="url(#clip-path)">
    <g id="consumer_discuss" data-name="consumer discuss" transform="translate(609 1044)">
      <path id="Trazado_775236" data-name="Trazado 775236" d="M44.25,43.5H41.865c-.57-2.76-.908-6-4.65-7.672C39.195,34.32,39,32.407,39,30.75a4.5,4.5,0,1,0-9,0c0,1.785-.18,3.578,1.777,5.078-1.417.622-.24.675-2.055-.8a9.2,9.2,0,0,0-2.685-1.5c2.385-1.7,2.25-3.983,2.25-5.775a5.25,5.25,0,0,0-10.5,0c0,1.665-.255,4.02,2.25,5.782a9.068,9.068,0,0,0-3.93,2.73,6.119,6.119,0,0,0-.818-.435C18.2,34.312,18,32.4,18,30.75a4.5,4.5,0,0,0-9,0c0,1.785-.18,3.585,1.785,5.085-3.757,1.665-4.1,5.01-4.65,7.665H3.75a.75.75,0,1,0,0,1.5h40.5a.75.75,0,0,0,0-1.5ZM31.5,32.25v-1.5a3,3,0,1,1,6,0v1.5a3,3,0,1,1-6,0Zm-11.25-3v-1.5a3.75,3.75,0,0,1,7.5,0v1.5a3.75,3.75,0,0,1-7.5,0Zm-9.75,3v-1.5a3,3,0,1,1,6,0v1.5a3,3,0,1,1-6,0ZM8.115,41.332A5.46,5.46,0,0,1,16.162,37.5c-1.027,1.725-1.2,3.353-1.77,6H10.71l.54-2.07a.771.771,0,0,0-1.5-.36L9.165,43.5h-1.5ZM29.925,43.5l-.75-3.165a.75.75,0,1,0-1.455.368l.66,2.8H19.665l.585-2.85a.765.765,0,1,0-1.5-.3l-.615,3.15h-2.2a38.73,38.73,0,0,1,.863-3.818A7.612,7.612,0,0,1,30.2,37.7c1.162,1.62,1.275,3,1.868,5.8Zm8.91,0-.585-2.43a.75.75,0,0,0-1.455.36l.495,2.07H33.608c-.638-3-.818-4.425-1.77-6a5.445,5.445,0,0,1,8.047,3.855l.443,2.145Z" fill="#fe502d"/>
      <path id="Trazado_775237" data-name="Trazado 775237" d="M39.75,3H8.25A5.25,5.25,0,0,0,3,8.25v4.5A5.25,5.25,0,0,0,8.25,18h2.535l2.048,4.088a.75.75,0,0,0,1.335,0L16.215,18h5.82l1.3,2.588a.75.75,0,0,0,1.335,0L25.965,18h5.82l2.048,4.088a.75.75,0,0,0,1.335,0L37.215,18H39.75A5.25,5.25,0,0,0,45,12.75V8.25A5.25,5.25,0,0,0,39.75,3Zm3.75,9.75a3.75,3.75,0,0,1-3.75,3.75h-3c-.615,0-.585.24-2.25,3.57-1.7-3.4-1.642-3.57-2.25-3.57-7.5,0-7.14-.142-7.417.413L24,18.57l-.833-1.657c-.278-.562-.045-.413-7.417-.413-.615,0-.585.24-2.25,3.57-1.7-3.4-1.642-3.57-2.25-3.57h-3A3.75,3.75,0,0,1,4.5,12.75V8.25A3.75,3.75,0,0,1,8.25,4.5h31.5A3.75,3.75,0,0,1,43.5,8.25Z" fill="#fe502d"/>
      <path id="Trazado_775238" data-name="Trazado 775238" d="M16.59,8.745l-1.665-.323-.825-1.5a.75.75,0,0,0-1.312,0l-.825,1.5c-1.77.345-2.055.3-2.25.825s.18.75,1.32,1.987c-.225,1.792-.36,2.055.1,2.377s.75.06,2.3-.637c1.68.75,1.627.75,1.852.75a.75.75,0,0,0,.75-.84L15.84,11.25,16.995,10a.75.75,0,0,0-.405-1.26Zm-2.2,3c-1.065-.495-.855-.487-1.89,0,.135-1.14.21-.937-.585-1.8,1.147-.225.975-.113,1.5-1.118.555,1.005.375.893,1.5,1.118-.72.847-.667.645-.525,1.815Z" fill="#fe502d"/>
      <path id="Trazado_775239" data-name="Trazado 775239" d="M25.6,7.5a2.25,2.25,0,0,0-1.6.66,2.25,2.25,0,1,0-3.187,3.172L23.49,14.01a.75.75,0,0,0,1.057,0L27.2,11.362A2.25,2.25,0,0,0,25.6,7.5Zm.54,2.8L24,12.42l-2.13-2.145A.75.75,0,0,1,22.388,9c.368,0,.465.15,1.08.75a.75.75,0,0,0,1.057,0l.532-.533a.764.764,0,0,1,1.08,1.08Z" fill="#fe502d"/>
      <path id="Trazado_775240" data-name="Trazado 775240" d="M37.59,9.495l-1.665-.323-.825-1.5a.75.75,0,0,0-1.312,0l-.825,1.5c-1.77.345-2.055.3-2.25.825s.18.75,1.32,1.987c-.225,1.792-.36,2.055.1,2.377s.787.06,2.3-.637c1.68.75,1.627.75,1.853.75a.75.75,0,0,0,.75-.84L36.84,12l1.155-1.245a.75.75,0,0,0-.4-1.26Zm-2.2,3c-1.065-.495-.855-.488-1.89,0,.135-1.14.21-.937-.585-1.8,1.147-.225.975-.113,1.5-1.118.555,1.005.375.893,1.5,1.118-.72.847-.667.645-.525,1.815Z" fill="#fe502d"/>
    </g>
  </g>
</svg>
