<svg xmlns="http://www.w3.org/2000/svg" xmlns:xlink="http://www.w3.org/1999/xlink" width="42" height="42" viewBox="0 0 42 42">
  <defs>
    <clipPath id="clip-path">
      <rect id="Rectángulo_361280" data-name="Rectángulo 361280" width="42" height="42" transform="translate(525 1380)" fill="#2d54fe"/>
    </clipPath>
  </defs>
  <g id="Enmascarar_grupo_998593" data-name="Enmascarar grupo 998593" transform="translate(-525 -1380)" clip-path="url(#clip-path)">
    <path id="convenio" d="M40.594,18.9h-2.1a1.4,1.4,0,0,0-1.4,1.4h-5a2.794,2.794,0,0,0,.1-.7V2.8A2.8,2.8,0,0,0,29.4,0H12.6A2.8,2.8,0,0,0,9.8,2.8V19.6a2.794,2.794,0,0,0,.1.7h-5a1.4,1.4,0,0,0-1.4-1.4H1.4A1.4,1.4,0,0,0,0,20.3V30.8a1.4,1.4,0,0,0,1.4,1.4H3.5a1.4,1.4,0,0,0,1.4-1.368,14.471,14.471,0,0,1,4,1.011,2.462,2.462,0,0,0,.614,3.117,2.436,2.436,0,0,0,1.512.522,2.515,2.515,0,0,0,.316-.034v.043a2.45,2.45,0,0,0,2.429,2.167,2.393,2.393,0,0,0,.316-.035,2.422,2.422,0,0,0,2.427,2.2,2.493,2.493,0,0,0,.321-.036,2.45,2.45,0,0,0,4.358,1.281l.655-.829c.743.64,1.186,1.05,1.19,1.05h0a2.45,2.45,0,0,0,4.181-1.739V39.52h.03a2.457,2.457,0,0,0,2.441-2.45v-.029h.024A2.442,2.442,0,0,0,32.164,34.6V34.57h.024a2.45,2.45,0,0,0,1.737-.719A2.52,2.52,0,0,0,34.651,32a2.34,2.34,0,0,0-.16-.752,11.619,11.619,0,0,1,2.6-.431,1.4,1.4,0,0,0,1.4,1.375h2.1a1.4,1.4,0,0,0,1.4-1.4V20.3A1.4,1.4,0,0,0,40.594,18.9ZM3.5,30.8H1.4V20.3H3.5Zm19.765-8.647a1.4,1.4,0,0,0-1.757.12l-3.563,3.311A1.086,1.086,0,0,1,16.361,24.1l4.212-4.436a2.506,2.506,0,0,1,2.875-.5l4.6,2.31a2.058,2.058,0,0,0,.945.228h8.1v7.719a12.576,12.576,0,0,0-3.532.663C30.777,27.7,23.592,22.39,23.264,22.148ZM17.5,1.4h7V7.55a.149.149,0,0,1-.223.129l-2.916-1.75a.7.7,0,0,0-.721,0l-2.916,1.75A.149.149,0,0,1,17.5,7.55ZM11.2,19.6V2.8a1.4,1.4,0,0,1,1.4-1.4h3.5V7.55a1.548,1.548,0,0,0,2.344,1.327L21,7.343l2.555,1.533A1.547,1.547,0,0,0,25.9,7.55V1.4h3.5a1.4,1.4,0,0,1,1.4,1.4V19.6a1.387,1.387,0,0,1-.192.7H28.99a.673.673,0,0,1-.309-.07l-4.6-2.31a3.779,3.779,0,0,0-1.728-.42,3.873,3.873,0,0,0-1.914.512,3.914,3.914,0,0,0-1.54-.477V16.1a1.4,1.4,0,0,0-1.4-1.4H14a1.4,1.4,0,0,0-1.4,1.4v2.1a1.4,1.4,0,0,0,.991,1.33l-1.39.7a.668.668,0,0,1-.3.07H11.39A1.387,1.387,0,0,1,11.2,19.6Zm5.039-1.4H14V16.1h3.5v1.557a3.422,3.422,0,0,0-.685.254ZM10.375,33.859a1.06,1.06,0,0,1-.174-1.482l1.587-2.007a1.061,1.061,0,0,1,.831-.4,1.045,1.045,0,0,1,.65.225,1.056,1.056,0,0,1,.173,1.475l-1.593,2.013a1.056,1.056,0,0,1-1.474.176Zm2.744,2.17a1.05,1.05,0,0,1-.393-.7,1.03,1.03,0,0,1,.219-.77l2.03-2.563a1.05,1.05,0,0,1,1.645,1.3l-2.03,2.562a1.05,1.05,0,0,1-1.472.174Zm2.744,2.17a1.058,1.058,0,0,1-.176-1.474h0l1.6-2.024a1.048,1.048,0,0,1,1.639,1.307h0l-1.592,2.017h0a1.065,1.065,0,0,1-1.476.174Zm5.382.535-1.152,1.46a1.052,1.052,0,1,1-1.655-1.3h0l1.16-1.462a1.059,1.059,0,0,1,.829-.4,1.03,1.03,0,0,1,.644.225,1.05,1.05,0,0,1,.175,1.473Zm11.688-5.871a1.053,1.053,0,0,1-1.488,0,.7.7,0,0,0-1.195.5.692.692,0,0,0,.205.494,1.05,1.05,0,0,1,0,1.485,1.065,1.065,0,0,1-1.494,0,.7.7,0,1,0-.984,1,1.05,1.05,0,0,1-.738,1.787h0a1.044,1.044,0,0,1-.743-.309.7.7,0,1,0-.99.99,1.05,1.05,0,0,1,0,1.484A1.069,1.069,0,0,1,24,40.27c-.024-.022-.514-.475-1.349-1.19a2.45,2.45,0,0,0-.706-2.917,2.41,2.41,0,0,0-1.412-.519,2.457,2.457,0,0,0-.91-2.207,2.42,2.42,0,0,0-1.4-.514,2.5,2.5,0,0,0,0-.56,2.45,2.45,0,0,0-2.715-2.151,2.48,2.48,0,0,0-.552.136,2.434,2.434,0,0,0-.82-1.249,2.464,2.464,0,0,0-3.446.4l-.934,1.183A16.171,16.171,0,0,0,4.9,29.423V21.7h7a2.053,2.053,0,0,0,.937-.221l4.612-2.32a2.45,2.45,0,0,1,1.8-.14l-3.919,4.129a2.485,2.485,0,0,0,3.586,3.437l3.525-3.3c.08.059,8.067,5.962,10.521,8.129a.88.88,0,0,1,.288.638,1.12,1.12,0,0,1-.319.815ZM40.594,30.8h-2.1V20.3h2.1Z" transform="translate(525.002 1380)" fill="#2d54fe"/>
  </g>
</svg>
