<svg xmlns="http://www.w3.org/2000/svg" xmlns:xlink="http://www.w3.org/1999/xlink" width="1328" height="368" viewBox="0 0 1328 368">
  <defs>
    <clipPath id="clip-path">
      <rect id="Rectángulo_361020" data-name="Rectángulo 361020" width="1328" height="368" rx="20" fill="#fff" stroke="#707070" stroke-width="1"/>
    </clipPath>
  </defs>
  <g id="Enmascarar_grupo_998589" data-name="Enmascarar grupo 998589" transform="translate(1328 368) rotate(180)" clip-path="url(#clip-path)">
    <g id="bg-curve" transform="translate(0 -436)">
      <path id="Trazado_774122" data-name="Trazado 774122" d="M1328,768V56.971C937.048,161.972,513.822,26.979,0,0V711.029C390.952,606.028,814.178,741.021,1328,768Z" fill="#fcf6d8"/>
      <path id="Trazado_774123" data-name="Trazado 774123" d="M86.616,442.891C49.985,510.144,21.02,579.053,0,648.719l2.624.313C22.138,584.134,49.932,515.25,88.795,443.9c51.974-95.422,78.157-188.754,77.824-277.4C166.4,107.62,154.511,51.88,131.321,0c-.86.08-1.723.15-2.583.229C186.812,130.334,172.654,284.929,86.616,442.891Z" transform="translate(1007.538 90.231)" fill="#fff"/>
      <path id="Trazado_774124" data-name="Trazado 774124" d="M35.724,564.089C26.037,581.007,16.022,598.5,6.5,615.531c-2.244,4.012-4.4,8.012-6.5,12.005l2.544.332c1.985-3.764,4.007-7.531,6.121-11.311,9.519-17.02,19.532-34.51,29.215-51.42,85.951-150.124,174.828-305.36,119.036-460.41Q137.344,50.332,95.071.035,93.52.019,91.968,0,134.939,50.735,154.6,105.434C210.066,259.575,121.436,414.382,35.724,564.089Z" transform="translate(887.134 96.243)" fill="#fff"/>
      <path id="Trazado_774125" data-name="Trazado 774125" d="M1.589,276.152C-4.494,352.695,6.85,420.584,36.269,483.7c19.146,41.075,46.1,80.585,82.7,120.227v-3.462c-35.5-38.794-61.734-77.477-80.461-117.651-58.722-125.979-46.7-271.536,39-471.959C79.056,7.228,80.524,3.613,81.954,0c-.944.217-1.893.412-2.838.626-1.254,3.128-2.536,6.26-3.878,9.4C31.846,111.515,7.755,198.567,1.589,276.152Z" transform="translate(1209.03 66.181)" fill="#fff"/>
      <path id="Trazado_774126" data-name="Trazado 774126" d="M178.772,289.286c24.775,134.939-22.387,270.791-133.64,390.428q1.977-.283,3.955-.559c45.739-49.367,80.54-101.4,103.912-155.489,33.193-76.819,42.673-155.8,28.178-234.752C164.844,199.953,117.57,113.437,44.466,38.72Q25.026,18.851,3.3.248,1.652.122,0,0C95.862,81.533,159,181.585,178.772,289.286Z" transform="translate(82.596 5.288)" fill="#fff"/>
      <path id="Trazado_774127" data-name="Trazado 774127" d="M100.631,282.524C106.5,195.721,73.393,102.4,0,0V4.113C71.648,104.949,103.98,196.888,98.2,282.384,92.763,362.741,54.388,431.074,0,492.9v3.581C55.672,433.786,95.093,364.4,100.631,282.524Z" transform="translate(0 95.442)" fill="#fff"/>
      <path id="Trazado_774128" data-name="Trazado 774128" d="M204.907,319.217c8.065,81.193-23.526,157.116-93.893,225.661C72.223,582.665,38.845,618.911,10.5,654.071c1.013-.051,2.028-.094,3.041-.143,28.155-34.681,61.12-70.366,99.247-107.506,70.869-69.034,102.681-145.546,94.549-227.408C199.938,244.555,155.622,134.942,3.993.436,2.661.292,1.333.143,0,0,152.956,134.949,197.511,244.769,204.907,319.217Z" transform="translate(237.178 19.529)" fill="#fff"/>
    </g>
  </g>
</svg>
