<svg xmlns="http://www.w3.org/2000/svg" xmlns:xlink="http://www.w3.org/1999/xlink" width="42" height="42" viewBox="0 0 42 42">
  <defs>
    <clipPath id="clip-path">
      <rect id="Rectángulo_361279" data-name="Rectángulo 361279" width="42" height="42" transform="translate(612 1277.283)" fill="#fe502d"/>
    </clipPath>
    <clipPath id="clip-path-2">
      <path id="path3153" d="M0-42H42V0H0Z" fill="#fe502d"/>
    </clipPath>
  </defs>
  <g id="Enmascarar_grupo_998592" data-name="Enmascarar grupo 998592" transform="translate(-612 -1277.283)" clip-path="url(#clip-path)">
    <g id="g3147" transform="translate(612 1319.283)">
      <g id="g3149">
        <g id="g3151" clip-path="url(#clip-path-2)">
          <g id="g3157" transform="translate(22.548 -3.22)">
            <path id="path3159" d="M0,0C.555.52.283,1.427-.248,1.958a1.566,1.566,0,0,1-2.181,0L-3.907.574" fill="none" stroke="#fe502d" stroke-linecap="round" stroke-linejoin="round" stroke-miterlimit="10" stroke-width="1.655"/>
          </g>
          <g id="g3161" transform="translate(17.324 -5.056)">
            <path id="path3163" d="M0,0A2.183,2.183,0,0,1,.463-.33,1.313,1.313,0,0,1,2.089,1.717L.992,2.7C-.594,4.128-2.314,2.087-1.044.942" fill="none" stroke="#fe502d" stroke-linecap="round" stroke-linejoin="round" stroke-miterlimit="10" stroke-width="1.655"/>
          </g>
          <g id="g3165" transform="translate(23.99 -14.353)">
            <path id="path3167" d="M0,0,5.822,5.177c2.34,2.08-.15,4.543-2.178,2.319" fill="none" stroke="#fe502d" stroke-linecap="round" stroke-linejoin="round" stroke-miterlimit="10" stroke-width="1.655"/>
          </g>
          <g id="g3169" transform="translate(24.509 -9.943)">
            <path id="path3171" d="M0,0,3.124,3.088a1.547,1.547,0,0,1,0,2.183,1.627,1.627,0,0,1-2.256,0L.714,5.11" fill="none" stroke="#fe502d" stroke-linecap="round" stroke-linejoin="round" stroke-miterlimit="10" stroke-width="1.655"/>
          </g>
          <g id="g3173" transform="translate(22.96 -7.12)">
            <path id="path3175" d="M0,0,2.284,2.287C3.365,3.371,1.853,6.028-.185,4.114l-.978-.921" fill="none" stroke="#fe502d" stroke-linecap="round" stroke-linejoin="round" stroke-miterlimit="10" stroke-width="1.655"/>
          </g>
          <g id="g3177" transform="translate(40.488 -17.794)">
            <path id="path3179" d="M0,0-6.743-8.638a1.572,1.572,0,0,0-2.178-.283l-4.413,3.364A1.525,1.525,0,0,0-13.613-3.4l6.741,8.638a1.57,1.57,0,0,0,2.178.281L-.278,2.153A1.527,1.527,0,0,0,0,0Z" fill="none" stroke="#fe502d" stroke-linecap="round" stroke-linejoin="round" stroke-miterlimit="10" stroke-width="1.655"/>
          </g>
          <g id="g3181" transform="translate(33.274 -12.996)">
            <path id="path3183" d="M0,0C-.966,1.795-1.226,2.052-3.463,3.821M-9.284-1.356l-1.678-1.528-2.688,1.333c-2.258,1-4.752-1.8-1.156-4.13l2.6-1.687c1.795-1.167,3.641-1.115,5.8-.839" fill="none" stroke="#fe502d" stroke-linecap="round" stroke-linejoin="round" stroke-miterlimit="10" stroke-width="1.655"/>
          </g>
          <g id="g3185" transform="translate(8.226 -12.057)">
            <path id="path3187" d="M0,0,1.381,1.891M12.5-8.087,6.984-8.931" fill="none" stroke="#fe502d" stroke-linecap="round" stroke-linejoin="round" stroke-miterlimit="10" stroke-width="1.655"/>
          </g>
          <g id="g3189" transform="translate(14.153 -10.218)">
            <path id="path3191" d="M0,0C1.767-1.56,3.652.8,2.27,2.022l-2.616,2.3C-1.769,5.578-3.613,3.346-2.422,2.2a1.873,1.873,0,0,0,.138-.136C-2.232,2.017,0,0,0,0Z" fill="none" stroke="#fe502d" stroke-linecap="round" stroke-linejoin="round" stroke-miterlimit="10" stroke-width="1.655"/>
          </g>
          <g id="g3193" transform="translate(9.607 -10.166)">
            <path id="path3195" d="M0,0,2.794-2.483C4.558-4.048,6.406-1.731,5.04-.5l-.494.445L1.954,2.287C.491,3.608-1.364,1.211,0,0Z" fill="none" stroke="#fe502d" stroke-linecap="round" stroke-linejoin="round" stroke-miterlimit="10" stroke-width="1.655"/>
          </g>
          <g id="g3197" transform="translate(16.25 -8.043)">
            <path id="path3199" d="M0,0C1.764-1.563,3.585.722,2.218,1.956L-.2,4.135A1.488,1.488,0,0,1-2.1,1.846l.276-.241" fill="none" stroke="#fe502d" stroke-linecap="round" stroke-linejoin="round" stroke-miterlimit="10" stroke-width="1.655"/>
          </g>
          <g id="g3201" transform="translate(12.286 -33.067)">
            <path id="path3203" d="M0,0A8.119,8.119,0,0,0,4.252,7.143,8.084,8.084,0,0,0,8.1,8.115,8.111,8.111,0,0,0,16.208,0a8.114,8.114,0,0,0-4.645-7.338A8.065,8.065,0,0,0,8.1-8.113,8.108,8.108,0,0,0,0,0Z" fill="none" stroke="#fe502d" stroke-linecap="round" stroke-linejoin="round" stroke-miterlimit="10" stroke-width="1.655"/>
          </g>
          <g id="g3205" transform="translate(22.979 -31.867)">
            <path id="path3207" d="M0,0A2.135,2.135,0,0,1-.554,1.539,2.637,2.637,0,0,1-1.9,2.3V3.467a.74.74,0,0,1-.739.726.727.727,0,0,1-.723-.726V2.31a2.737,2.737,0,0,1-.887-.363,2.418,2.418,0,0,1-.566-.457l-.161-.208C-5.641.405-4.537-.532-3.9.143c.08.082.162.18.255.286a1.262,1.262,0,0,0,.983.347q.909,0,.91-.752c0-.18-.115-.319-.344-.417a5.084,5.084,0,0,0-.838-.267,6.905,6.905,0,0,1-.983-.314,1.873,1.873,0,0,1-.838-.677,2.045,2.045,0,0,1-.344-1.221A2.115,2.115,0,0,1-4.628-4.2a2.117,2.117,0,0,1,1.282-.761v-.993a.729.729,0,0,1,.725-.726.728.728,0,0,1,.725.726v1a2.743,2.743,0,0,1,.627.209,2.4,2.4,0,0,1,.4.223l.11.1c.952.715.033,1.98-.789,1.289-.557-.469-1.82-.574-1.82.288a.507.507,0,0,0,.253.438,1.514,1.514,0,0,0,.62.22A6.143,6.143,0,0,1-1.687-2a5.762,5.762,0,0,1,.814.3,1.432,1.432,0,0,1,.62.609A2.159,2.159,0,0,1,0,0" fill="#fe502d"/>
          </g>
          <g id="g3209" transform="translate(4.653 -21.489)">
            <path id="path3211" d="M0,0,.009-.012" fill="none" stroke="#fe502d" stroke-linecap="round" stroke-linejoin="round" stroke-miterlimit="10" stroke-width="1.655"/>
          </g>
          <g id="g3213" transform="translate(6.647 -24.042)">
            <path id="path3215" d="M0,0,1.607-2.059a1.57,1.57,0,0,1,2.178-.281L8.2,1.021A1.527,1.527,0,0,1,8.48,3.175L1.736,11.812A1.572,1.572,0,0,1-.442,12.1L-4.855,8.731a1.525,1.525,0,0,1-.278-2.153L-3.987,5.11" fill="none" stroke="#fe502d" stroke-linecap="round" stroke-linejoin="round" stroke-miterlimit="10" stroke-width="1.655"/>
          </g>
        </g>
      </g>
    </g>
  </g>
</svg>
