<svg xmlns="http://www.w3.org/2000/svg" xmlns:xlink="http://www.w3.org/1999/xlink" width="87" height="87" viewBox="0 0 87 87">
  <defs>
    <clipPath id="clip-path">
      <rect id="Rectángulo_361315" data-name="Rectángulo 361315" width="87" height="87" transform="translate(757 13799)" fill="#fff"/>
    </clipPath>
  </defs>
  <g id="Enmascarar_grupo_998605" data-name="Enmascarar grupo 998605" transform="translate(-757 -13799)" clip-path="url(#clip-path)">
    <g id="information_1475010" transform="translate(757 13799)">
      <path id="Trazado_775479" data-name="Trazado 775479" d="M85.6,18.242V46.306a5.613,5.613,0,1,1-11.226,0V15.435H82.79A2.815,2.815,0,0,1,85.6,18.242Zm0,0" fill="#ff826e"/>
      <path id="Trazado_775480" data-name="Trazado 775480" d="M1.4,12.629V4.21A2.815,2.815,0,0,1,4.21,1.4h21.6a2.76,2.76,0,0,1,1.557.477l7.718,5.136H71.564a2.815,2.815,0,0,1,2.806,2.806v2.806Zm0,0" fill="#fcd770"/>
      <path id="Trazado_775481" data-name="Trazado 775481" d="M1.4,46.306V12.629H74.371V46.306a5.611,5.611,0,0,0,5.613,5.613H60.339a21.048,21.048,0,1,0-33.677,0H7.016A5.611,5.611,0,0,1,1.4,46.306Zm0,0" fill="#ffeaa7"/>
      <path id="Trazado_775482" data-name="Trazado 775482" d="M49.113,65.952V79.984a5.613,5.613,0,0,1-11.226,0V65.952Zm0,0" fill="#cf9e76"/>
      <path id="Trazado_775483" data-name="Trazado 775483" d="M46.306,60.142v5.81H40.694v-5.81a20.125,20.125,0,0,0,5.613,0Zm0,0" fill="#e6e9ed"/>
      <path id="Trazado_775484" data-name="Trazado 775484" d="M46.306,60.142a20.125,20.125,0,0,1-5.613,0,21.062,21.062,0,1,1,5.613,0Zm0,0" fill="#ccd1d9"/>
      <path id="Trazado_775485" data-name="Trazado 775485" d="M43.5,23.855A15.435,15.435,0,1,1,28.065,39.29,15.427,15.427,0,0,1,43.5,23.855Zm0,0" fill="#69d6f4"/>
      <path id="Trazado_775486" data-name="Trazado 775486" d="M82.79,14.032H75.774V9.823a4.215,4.215,0,0,0-4.21-4.21H35.506L28.147.707A4.2,4.2,0,0,0,25.812,0H4.21A4.215,4.215,0,0,0,0,4.21v42.1a7.024,7.024,0,0,0,7.016,7.016H26a22.449,22.449,0,0,0,13.289,8.01v3.216H36.484V79.984a7.016,7.016,0,0,0,14.032,0V64.548H47.71V61.332A22.456,22.456,0,0,0,61,53.323H79.984A7.024,7.024,0,0,0,87,46.306V18.242a4.215,4.215,0,0,0-4.21-4.21ZM4.21,2.806h21.6a1.4,1.4,0,0,1,.779.236l8.064,5.377H71.565a1.406,1.406,0,0,1,1.4,1.4v1.4H2.806V4.21a1.406,1.406,0,0,1,1.4-1.4Zm43.5,77.177a4.21,4.21,0,1,1-8.419,0V67.355H47.71ZM44.9,64.548H42.1V61.671c.466.029.929.071,1.4.071s.937-.042,1.4-.071Zm-1.4-5.613A19.645,19.645,0,1,1,63.145,39.29,19.666,19.666,0,0,1,43.5,58.935ZM65.952,39.29A22.452,22.452,0,1,0,24.086,50.516H7.016a4.215,4.215,0,0,1-4.21-4.21V14.032H72.968V46.306a6.946,6.946,0,0,0,1.44,4.21H62.914A22.285,22.285,0,0,0,65.952,39.29Zm18.242,7.016a4.21,4.21,0,0,1-8.419,0V16.839H82.79a1.406,1.406,0,0,1,1.4,1.4Zm0,0"/>
      <path id="Trazado_775487" data-name="Trazado 775487" d="M5.613,5.613H25.258V8.419H5.613Zm0,0"/>
      <path id="Trazado_775488" data-name="Trazado 775488" d="M43.5,22.452A16.839,16.839,0,1,0,60.339,39.29,16.857,16.857,0,0,0,43.5,22.452Zm0,30.871A14.032,14.032,0,1,1,57.532,39.29,14.048,14.048,0,0,1,43.5,53.323Zm0,0"/>
      <path id="Trazado_775489" data-name="Trazado 775489" d="M44.9,29.468a1.4,1.4,0,1,1-1.4-1.4A1.4,1.4,0,0,1,44.9,29.468Zm0,0"/>
      <path id="Trazado_775490" data-name="Trazado 775490" d="M39.29,36.484H42.1V47.71H39.29v2.806H47.71V47.71H44.9V36.484H47.71V33.677H39.29Zm0,0"/>
      <path id="Trazado_775491" data-name="Trazado 775491" d="M5.613,16.839H18.242v2.806H5.613Zm0,0"/>
      <path id="Trazado_775492" data-name="Trazado 775492" d="M5.613,22.452H18.242v2.806H5.613Zm0,0"/>
      <path id="Trazado_775493" data-name="Trazado 775493" d="M15.435,28.065h2.806v2.806H15.435Zm0,0"/>
      <path id="Trazado_775494" data-name="Trazado 775494" d="M5.613,28.065h7.016v2.806H5.613Zm0,0"/>
    </g>
  </g>
</svg>
