<svg xmlns="http://www.w3.org/2000/svg" xmlns:xlink="http://www.w3.org/1999/xlink" width="87" height="87" viewBox="0 0 87 87">
  <defs>
    <clipPath id="clip-path">
      <rect id="Rectángulo_361314" data-name="Rectángulo 361314" width="87" height="87" transform="translate(336 13799)" fill="#fff"/>
    </clipPath>
  </defs>
  <g id="Enmascarar_grupo_998604" data-name="Enmascarar grupo 998604" transform="translate(-336 -13799)" clip-path="url(#clip-path)">
    <g id="finish_1768178" transform="translate(338.036 13799)">
      <g id="Grupo_1029345" data-name="Grupo 1029345">
        <path id="Trazado_775462" data-name="Trazado 775462" d="M80.072,33.482h-4.3c-.048,0-.095,0-.142-.007v50.3a2.074,2.074,0,0,0,2.064,2.072h.456a2.074,2.074,0,0,0,2.064-2.072v-50.3c-.046,0-.094.007-.142.007Zm0,0" fill="#c7d2e5"/>
        <path id="Trazado_775463" data-name="Trazado 775463" d="M7.261,33.482h-4.3c-.048,0-.095,0-.142-.007v50.3a2.074,2.074,0,0,0,2.064,2.072h.457A2.074,2.074,0,0,0,7.4,83.775v-50.3c-.047,0-.094.007-.142.007Zm0,0" fill="#c7d2e5"/>
        <path id="Trazado_775464" data-name="Trazado 775464" d="M75.772,7.588h4.3c.048,0,.1,0,.142.007V3.519A2.1,2.1,0,0,0,78.15,1.4h-.456A2.1,2.1,0,0,0,75.63,3.519V7.6c.047,0,.094-.007.142-.007Zm0,0" fill="#c7d2e5"/>
        <path id="Trazado_775465" data-name="Trazado 775465" d="M2.961,7.588h4.3c.048,0,.1,0,.142.007V3.519A2.1,2.1,0,0,0,5.339,1.4H4.883A2.1,2.1,0,0,0,2.819,3.519V7.6c.047,0,.094-.007.142-.007Zm0,0" fill="#c7d2e5"/>
      </g>
      <path id="Trazado_775466" data-name="Trazado 775466" d="M74.609,32.04V9.049a1.586,1.586,0,0,1,.054-.406,171.311,171.311,0,0,1-33.25,2.9,171.3,171.3,0,0,1-33.25-2.9,1.612,1.612,0,0,1,.054.406V32.04a1.574,1.574,0,0,1-.038.342,171.359,171.359,0,0,0,33.233,2.9,171.361,171.361,0,0,0,33.234-2.9,1.579,1.579,0,0,1-.038-.342Zm0,0" fill="#ff6b6b"/>
      <path id="Trazado_775467" data-name="Trazado 775467" d="M8.18,32.382c1.75.362,3.623.695,5.6,1V9.644c-1.985-.3-3.864-.638-5.619-1a1.612,1.612,0,0,1,.054.406V32.039a1.621,1.621,0,0,1-.038.342Zm0,0" fill="#ee5253"/>
      <path id="Trazado_775468" data-name="Trazado 775468" d="M80.072,7.415h-4.3a1.638,1.638,0,0,0-1.634,1.634V32.04a1.638,1.638,0,0,0,1.634,1.634h4.3a1.639,1.639,0,0,0,1.634-1.634V9.049a1.638,1.638,0,0,0-1.634-1.634Zm0,0" fill="#ff6b6b"/>
      <path id="Trazado_775469" data-name="Trazado 775469" d="M7.261,7.415h-4.3A1.639,1.639,0,0,0,1.327,9.049V32.04a1.639,1.639,0,0,0,1.634,1.634h4.3A1.639,1.639,0,0,0,8.9,32.04V9.049A1.638,1.638,0,0,0,7.261,7.415Zm0,0" fill="#ff6b6b"/>
      <path id="Trazado_775470" data-name="Trazado 775470" d="M78.658,32.04V9.049a1.638,1.638,0,0,1,1.524-1.628c-.037,0-.073-.006-.11-.006h-4.3a1.638,1.638,0,0,0-1.634,1.634V32.04a1.638,1.638,0,0,0,1.634,1.634h4.3c.037,0,.074,0,.11-.006A1.638,1.638,0,0,1,78.658,32.04Zm0,0" fill="#ee5253"/>
      <path id="Trazado_775471" data-name="Trazado 775471" d="M5.847,32.04V9.049A1.638,1.638,0,0,1,7.371,7.421c-.037,0-.073-.006-.11-.006h-4.3A1.639,1.639,0,0,0,1.327,9.049V32.04a1.639,1.639,0,0,0,1.634,1.634h4.3c.037,0,.074,0,.11-.006A1.638,1.638,0,0,1,5.847,32.04Zm0,0" fill="#ee5253"/>
      <path id="Trazado_775472" data-name="Trazado 775472" d="M25.383,18.422c.544.06.916-.485.99-1.156.064-.58-.119-1.243-.717-1.309l-6.288-.7c-.616-.068-1.264.153-1.329.733L16.763,27.5c-.064.58.61.949,1.317,1.027s1.446-.133,1.509-.713l.519-4.675,2.736.3c.6.066.916-.486.97-.975.064-.579-.186-1.14-.729-1.2l-2.736-.3.34-3.062Zm0,0"/>
      <path id="Trazado_775473" data-name="Trazado 775473" d="M27.2,16.9l-.8,11.567c-.04.582.648.923,1.358.972s1.439-.192,1.48-.775l.8-11.567c.042-.6-.65-.9-1.359-.953S27.24,16.3,27.2,16.9Zm0,0"/>
      <path id="Trazado_775474" data-name="Trazado 775474" d="M38.292,17.44l-.183,6.2-2.786-5.718c-.653-1.351-1.033-1.454-2.054-1.483-.711-.021-1.43.231-1.447.833L31.48,28.84c-.017.583.685.9,1.4.917s1.43-.25,1.447-.833l.183-6.2,3.276,6.408a1.592,1.592,0,0,0,1.562.812c.711.021,1.43-.25,1.448-.833l.342-11.591c.017-.6-.686-.877-1.4-.9s-1.429.213-1.447.814Zm0,0"/>
      <path id="Trazado_775475" data-name="Trazado 775475" d="M44.4,29.945c.711-.005,1.42-.3,1.416-.885l-.082-11.6c0-.6-.717-.852-1.428-.847s-1.42.266-1.416.867l.082,11.6c0,.583.718.87,1.428.866Zm0,0"/>
      <path id="Trazado_775476" data-name="Trazado 775476" d="M51.659,27.4c-1.694.069-2.3-1.256-3.152-1.221-.692.028-1.2.961-1.176,1.58.049,1.2,2.1,2.287,4.487,2.189,2.641-.108,4.5-1.608,4.389-4.231-.188-4.591-5.949-4.008-6.023-5.83-.023-.565.483-1.114,1.777-1.168,1.494-.061,1.868.617,2.524.59.8-.033,1.089-1.048,1.068-1.54-.058-1.421-2.725-1.494-3.69-1.455-2.277.094-4.621,1.229-4.509,3.962.174,4.263,5.933,3.644,6.024,5.848.035.875-.88,1.241-1.718,1.275Zm0,0"/>
      <path id="Trazado_775477" data-name="Trazado 775477" d="M59.84,16.788c-.058-.6-.79-.785-1.5-.716s-1.391.392-1.333.99L58.128,28.6c.056.581.793.8,1.5.733s1.387-.427,1.331-1.008l-.477-4.917,3.611-.35.477,4.917c.056.581.792.8,1.5.734s1.387-.427,1.331-1.008L66.282,16.163c-.058-.6-.79-.785-1.5-.716s-1.391.391-1.333.99l.431,4.446-3.612.35Zm0,0"/>
      <path id="Trazado_775478" data-name="Trazado 775478" d="M1.492,6.391A2.909,2.909,0,0,0,0,8.928V31.919a2.91,2.91,0,0,0,1.492,2.538v49.2A3.342,3.342,0,0,0,4.831,87h.456a3.342,3.342,0,0,0,3.338-3.339v-49.2A2.925,2.925,0,0,0,9.5,33.7c18.24,3.64,45.7,3.638,63.929,0a2.931,2.931,0,0,0,.874.753v49.2A3.342,3.342,0,0,0,77.642,87H78.1a3.342,3.342,0,0,0,3.339-3.338V60.707a1.274,1.274,0,0,0-2.549,0V83.662a.8.8,0,0,1-.79.789h-.456a.8.8,0,0,1-.789-.789V34.827h2.035V54.759a1.274,1.274,0,0,0,2.549,0v-20.3a2.909,2.909,0,0,0,1.491-2.538V8.928a2.909,2.909,0,0,0-1.491-2.538V3.339A3.343,3.343,0,0,0,78.1,0h-.456A3.342,3.342,0,0,0,74.3,3.339V6.391A2.919,2.919,0,0,0,73.247,7.4,162.394,162.394,0,0,1,44.42,10.127a1.275,1.275,0,0,0,.035,2.549A168,168,0,0,0,72.811,10.09V31.228c-17.867,3.542-44.834,3.541-62.695,0V10.09a167.953,167.953,0,0,0,28.356,2.585,1.275,1.275,0,0,0,.035-2.549A162.328,162.328,0,0,1,9.681,7.4,2.926,2.926,0,0,0,8.625,6.39V3.339A3.342,3.342,0,0,0,5.287,0H4.83A3.342,3.342,0,0,0,1.492,3.339Zm74.23,25.888h-.009a.366.366,0,0,1-.344-.283,0,0,0,0,0,0,0,.372.372,0,0,1-.008-.074V8.928a.351.351,0,0,1,.013-.087.008.008,0,0,0,0,0,.365.365,0,0,1,.342-.268h4.308a.364.364,0,0,1,.354.358V31.919a.364.364,0,0,1-.36.36Zm1.13-28.94a.8.8,0,0,1,.789-.79H78.1a.8.8,0,0,1,.79.79V6.02H76.853ZM7.214,8.57a.363.363,0,0,1,.341.267s0,0,0,0a.356.356,0,0,1,.013.087V31.919a.394.394,0,0,1-.009.075.366.366,0,0,1-.346.284H2.9a.365.365,0,0,1-.353-.359V8.928A.364.364,0,0,1,2.9,8.569H7.214ZM6.076,83.661a.8.8,0,0,1-.789.79H4.83a.8.8,0,0,1-.789-.79V34.827H6.076ZM4.041,3.339a.8.8,0,0,1,.79-.79h.456a.8.8,0,0,1,.789.79V6.02H4.041Zm0,0"/>
    </g>
  </g>
</svg>
