<svg xmlns="http://www.w3.org/2000/svg" width="1070.26" height="395" viewBox="0 0 1070.26 395">
  <g id="Grupo_1029347" data-name="Grupo 1029347" transform="translate(-245 -3410)">
    <g id="Grupo_1029333" data-name="Grupo 1029333" transform="translate(105 19.102)">
      <path id="Trazado_775414" data-name="Trazado 775414" d="M847.471,640.817H141.364a1.961,1.961,0,1,1,0-3.922H847.471a1.961,1.961,0,0,1,0,3.922" transform="translate(78.934 2949.069)" fill="#636363"/>
      <path id="Trazado_775415" data-name="Trazado 775415" d="M2712.946,619.445c-5.569,2.066-12.478,5.592-16.76,9.326l3.373-9.326-3.373-9.323c4.283,3.734,11.192,7.259,16.76,9.323" transform="translate(-1774.707 2968.479)" fill="#636363"/>
      <path id="Trazado_775416" data-name="Trazado 775416" d="M545.3,354.227a1.126,1.126,0,0,1-.876-1.832L685.512,177.333,544.07,1.831A1.126,1.126,0,0,1,545.823.418L688.4,177.333l-.569.707L546.177,353.807a1.123,1.123,0,0,1-.877.419" transform="translate(-214.264 3410.812)" fill="#636363"/>
      <path id="Trazado_775417" data-name="Trazado 775417" d="M1301.315,354.226a1.126,1.126,0,0,1-.876-1.832l141.088-175.062L1300.084,1.831a1.126,1.126,0,0,1,1.753-1.413l142.581,176.914-.569.707L1302.192,353.807a1.123,1.123,0,0,1-.877.419" transform="translate(-762.367 3410.812)" fill="#636363"/>
      <path id="Trazado_775418" data-name="Trazado 775418" d="M2057.328,354.226a1.126,1.126,0,0,1-.876-1.832L2197.54,177.332,2056.1,1.831a1.126,1.126,0,0,1,1.753-1.413l142.581,176.914-.569.707L2058.205,353.807a1.122,1.122,0,0,1-.877.419" transform="translate(-1310.469 3410.812)" fill="#636363"/>
      <path id="Trazado_775419" data-name="Trazado 775419" d="M444.926,193.727H348.448a1.126,1.126,0,0,1,0-2.252h96.478a1.126,1.126,0,0,1,0,2.252" transform="translate(-71.805 3271.993)" fill="#636363"/>
      <path id="Trazado_775420" data-name="Trazado 775420" d="M514,283.965H417.518a1.126,1.126,0,1,1,0-2.252H514a1.126,1.126,0,0,1,0,2.252" transform="translate(-121.88 3206.572)" fill="#636363"/>
      <path id="Trazado_775421" data-name="Trazado 775421" d="M585.729,374.2H489.251a1.126,1.126,0,1,1,0-2.252h96.478a1.126,1.126,0,0,1,0,2.252" transform="translate(-173.886 3141.151)" fill="#636363"/>
      <path id="Trazado_775422" data-name="Trazado 775422" d="M587.06,910.163H490.582a1.126,1.126,0,0,1,0-2.252H587.06a1.126,1.126,0,0,1,0,2.252" transform="translate(-174.85 2752.585)" fill="#636363"/>
      <path id="Trazado_775423" data-name="Trazado 775423" d="M517.991,1000.4H421.513a1.126,1.126,0,0,1,0-2.252h96.478a1.126,1.126,0,0,1,0,2.252" transform="translate(-124.776 2687.164)" fill="#636363"/>
      <path id="Trazado_775424" data-name="Trazado 775424" d="M446.257,1090.637H349.779a1.126,1.126,0,0,1,0-2.252h96.478a1.126,1.126,0,0,1,0,2.252" transform="translate(-72.77 2621.743)" fill="#636363"/>
      <path id="Trazado_775425" data-name="Trazado 775425" d="M1199.4,193.727h-96.478a1.126,1.126,0,0,1,0-2.252H1199.4a1.126,1.126,0,0,1,0,2.252" transform="translate(-618.787 3271.993)" fill="#636363"/>
      <path id="Trazado_775426" data-name="Trazado 775426" d="M1268.465,283.965h-96.478a1.126,1.126,0,1,1,0-2.252h96.478a1.126,1.126,0,0,1,0,2.252" transform="translate(-668.862 3206.572)" fill="#636363"/>
      <path id="Trazado_775427" data-name="Trazado 775427" d="M1340.2,374.2H1243.72a1.126,1.126,0,1,1,0-2.252H1340.2a1.126,1.126,0,0,1,0,2.252" transform="translate(-720.867 3141.151)" fill="#636363"/>
      <path id="Trazado_775428" data-name="Trazado 775428" d="M1956.876,193.727H1860.4a1.126,1.126,0,1,1,0-2.252h96.478a1.126,1.126,0,1,1,0,2.252" transform="translate(-1167.953 3271.993)" fill="#636363"/>
      <path id="Trazado_775429" data-name="Trazado 775429" d="M2025.946,283.965h-96.478a1.126,1.126,0,1,1,0-2.252h96.478a1.126,1.126,0,1,1,0,2.252" transform="translate(-1218.028 3206.572)" fill="#636363"/>
      <path id="Trazado_775430" data-name="Trazado 775430" d="M2097.68,374.2H2001.2a1.126,1.126,0,1,1,0-2.252h96.478a1.126,1.126,0,1,1,0,2.252" transform="translate(-1270.034 3141.151)" fill="#636363"/>
      <path id="Trazado_775431" data-name="Trazado 775431" d="M1341.529,910.163h-96.478a1.126,1.126,0,0,1,0-2.252h96.478a1.126,1.126,0,0,1,0,2.252" transform="translate(-721.833 2752.585)" fill="#636363"/>
      <path id="Trazado_775432" data-name="Trazado 775432" d="M1272.459,1000.4h-96.478a1.126,1.126,0,0,1,0-2.252h96.478a1.126,1.126,0,0,1,0,2.252" transform="translate(-671.758 2687.164)" fill="#636363"/>
      <path id="Trazado_775433" data-name="Trazado 775433" d="M1200.726,1090.637h-96.478a1.126,1.126,0,0,1,0-2.252h96.478a1.126,1.126,0,0,1,0,2.252" transform="translate(-619.752 2621.743)" fill="#636363"/>
      <path id="Trazado_775434" data-name="Trazado 775434" d="M2097.68,910.163H2001.2a1.126,1.126,0,0,1,0-2.252h96.478a1.126,1.126,0,1,1,0,2.252" transform="translate(-1270.034 2752.585)" fill="#636363"/>
      <path id="Trazado_775435" data-name="Trazado 775435" d="M2028.609,1000.4h-96.478a1.126,1.126,0,0,1,0-2.252h96.478a1.126,1.126,0,0,1,0,2.252" transform="translate(-1219.959 2687.164)" fill="#636363"/>
      <path id="Trazado_775436" data-name="Trazado 775436" d="M1956.876,1090.637H1860.4a1.126,1.126,0,0,1,0-2.252h96.478a1.126,1.126,0,1,1,0,2.252" transform="translate(-1167.953 2621.743)" fill="#636363"/>
      <path id="Trazado_775437" data-name="Trazado 775437" d="M2825.2,195.57c-14.109,0-25.546,55.217-25.546,123.33s11.438,123.33,25.546,123.33c158.957,0,213.936-79.254,229.493-110.7-10.573,11.267-23.8,21.585-38.2,26.309a56.254,56.254,0,0,1-8.884,2.032,56.856,56.856,0,0,0,16.794-6.25,93.837,93.837,0,0,0,20.664-16.088,133.707,133.707,0,0,0,13.818-16.4q.329-.465.661-.941c.294-.846.429-1.3.429-1.3s-36.494-123.33-234.78-123.33" transform="translate(-1849.72 3269.024)" fill="#636363"/>
      <path id="Trazado_775438" data-name="Trazado 775438" d="M3129.754,495.1a13.739,13.739,0,1,1-13.739-13.739,13.739,13.739,0,0,1,13.739,13.739" transform="translate(-2069.118 3061.829)" fill="#ffca00"/>
      <path id="Trazado_775439" data-name="Trazado 775439" d="M1.479,274.285c-12.6-56.042,123.8,98.2,119.228,92.926,0,0-113.354,124.51-120.439,98.259A8.956,8.956,0,0,1,.3,461C15.815,401.32,16.245,334.482,1.479,274.285" transform="translate(180 3220.86)" fill="#636363"/>
    </g>
    <path id="Trazado_775521" data-name="Trazado 775521" d="M13.5,0h98a13.5,13.5,0,0,1,0,27h-98a13.5,13.5,0,0,1,0-27Z" transform="translate(370 3778)" fill="#ffca00"/>
    <path id="Trazado_775519" data-name="Trazado 775519" d="M13.5,0h200a13.5,13.5,0,0,1,0,27H13.5a13.5,13.5,0,0,1,0-27Z" transform="translate(739 3778)" fill="#fe502d"/>
    <path id="Trazado_775523" data-name="Trazado 775523" d="M13.5,0h98a13.5,13.5,0,0,1,0,27h-98a13.5,13.5,0,0,1,0-27Z" transform="translate(370 3410)" fill="#ffca00"/>
    <path id="Trazado_775524" data-name="Trazado 775524" d="M13.5,0h200a13.5,13.5,0,0,1,0,27H13.5a13.5,13.5,0,0,1,0-27Z" transform="translate(739 3410)" fill="#fe502d"/>
    <g id="Grupo_1029335" data-name="Grupo 1029335">
      <rect id="Rectángulo_361325" data-name="Rectángulo 361325" width="125" height="27" rx="13.5" transform="translate(245 3594)" fill="#2d54fe"/>
      <text id="Problema" transform="translate(308 3614)" fill="#fff" font-size="18" font-family="Roboto-Black, Roboto" font-weight="800"><tspan x="-39.133" y="0">Problema</tspan></text>
    </g>
    <path id="Trazado_775522" data-name="Trazado 775522" d="M-21.278-4.333A4.673,4.673,0,0,1-22-1.973a4.35,4.35,0,0,1-1.85,1.586,6.3,6.3,0,0,1-2.72.563,5.025,5.025,0,0,1-3.973-1.644,6.786,6.786,0,0,1-1.45-4.641v-.633a7.746,7.746,0,0,1,.655-3.292,4.961,4.961,0,0,1,1.885-2.18,5.26,5.26,0,0,1,2.848-.769,5.516,5.516,0,0,1,3.744,1.226,4.844,4.844,0,0,1,1.608,3.379h-3.076a2.292,2.292,0,0,0-.589-1.679,2.422,2.422,0,0,0-1.687-.51,1.843,1.843,0,0,0-1.687.861,5.536,5.536,0,0,0-.562,2.751v.905A6.126,6.126,0,0,0-28.34-3.12a1.882,1.882,0,0,0,1.771.879,2.369,2.369,0,0,0,1.626-.5,2.126,2.126,0,0,0,.6-1.591ZM-14.6,0a3.344,3.344,0,0,1-.281-.853A2.754,2.754,0,0,1-17.165.176,3.374,3.374,0,0,1-19.45-.637a2.588,2.588,0,0,1-.94-2.043,2.66,2.66,0,0,1,1.143-2.338,5.821,5.821,0,0,1,3.322-.791h.914v-.5q0-1.316-1.134-1.316A.927.927,0,0,0-17.2-6.587h-2.962a2.655,2.655,0,0,1,1.173-2.239A4.931,4.931,0,0,1-16-9.686a4.323,4.323,0,0,1,2.874.888,3.086,3.086,0,0,1,1.081,2.435v4.21a4.311,4.311,0,0,0,.4,2V0Zm-1.854-1.934a1.652,1.652,0,0,0,.918-.237,1.487,1.487,0,0,0,.523-.536V-4.228h-.861q-1.547,0-1.547,1.389a.848.848,0,0,0,.272.655A.986.986,0,0,0-16.453-1.934Zm11.716.905a3.054,3.054,0,0,1-2.54,1.2,3,3,0,0,1-2.369-.91,3.826,3.826,0,0,1-.8-2.615V-9.51h2.962v6.179A1.065,1.065,0,0,0-6.3-2.109a1.548,1.548,0,0,0,1.45-.729V-9.51h2.979V0H-4.649ZM4.729-2.672a.684.684,0,0,0-.4-.606,6.016,6.016,0,0,0-1.5-.475A6.853,6.853,0,0,1,1-4.4,3.062,3.062,0,0,1-.1-5.37,2.319,2.319,0,0,1-.475-6.68,2.628,2.628,0,0,1,.606-8.837a4.453,4.453,0,0,1,2.83-.848,4.934,4.934,0,0,1,3.023.853A2.666,2.666,0,0,1,7.6-6.592H4.632q0-1.143-1.2-1.143a1.194,1.194,0,0,0-.782.259.8.8,0,0,0-.316.646.737.737,0,0,0,.387.642,3.654,3.654,0,0,0,1.235.4,10.671,10.671,0,0,1,1.49.378A2.706,2.706,0,0,1,7.585-2.76,2.491,2.491,0,0,1,6.429-.642,5.068,5.068,0,0,1,3.437.176a5.172,5.172,0,0,1-2.18-.439,3.645,3.645,0,0,1-1.494-1.2A2.707,2.707,0,0,1-.773-3.05H2a1.145,1.145,0,0,0,.439.962,1.808,1.808,0,0,0,1.081.3,1.422,1.422,0,0,0,.91-.246A.787.787,0,0,0,4.729-2.672ZM14.326,0a3.344,3.344,0,0,1-.281-.853A2.754,2.754,0,0,1,11.76.176,3.374,3.374,0,0,1,9.475-.637a2.588,2.588,0,0,1-.94-2.043A2.66,2.66,0,0,1,9.677-5.019,5.821,5.821,0,0,1,13-5.81h.914v-.5q0-1.316-1.134-1.316a.927.927,0,0,0-1.055,1.042H8.763A2.655,2.655,0,0,1,9.936-8.825a4.931,4.931,0,0,1,2.993-.86A4.323,4.323,0,0,1,15.8-8.8a3.086,3.086,0,0,1,1.081,2.435v4.21a4.311,4.311,0,0,0,.4,2V0ZM12.472-1.934a1.652,1.652,0,0,0,.918-.237,1.487,1.487,0,0,0,.523-.536V-4.228h-.861q-1.547,0-1.547,1.389a.848.848,0,0,0,.272.655A.986.986,0,0,0,12.472-1.934ZM31.887,0h-8.93V-1.934L27.07-6.258a4.909,4.909,0,0,0,1.521-2.751,1.913,1.913,0,0,0-.36-1.257,1.287,1.287,0,0,0-1.046-.431,1.3,1.3,0,0,0-1.1.576,2.366,2.366,0,0,0-.422,1.437H22.693a4.2,4.2,0,0,1,.589-2.175,4.129,4.129,0,0,1,1.635-1.56,4.856,4.856,0,0,1,2.338-.562,4.777,4.777,0,0,1,3.195.958A3.42,3.42,0,0,1,31.57-9.272,4,4,0,0,1,31.289-7.8a6.456,6.456,0,0,1-.875,1.5,22.029,22.029,0,0,1-1.912,2.1L26.851-2.285h5.036Z" transform="translate(433 3798)" fill="#12263f"/>
    <path id="Trazado_775520" data-name="Trazado 775520" d="M-79.449-2.391h-4.228L-84.415,0h-3.3l4.693-12.8h2.9L-75.388,0H-78.7Zm-3.489-2.382h2.751l-1.38-4.438Zm12.366,2.663a1.317,1.317,0,0,0,.967-.338,1.241,1.241,0,0,0,.334-.945h2.777A3.288,3.288,0,0,1-67.614-.826a4.168,4.168,0,0,1-2.887,1,4.22,4.22,0,0,1-3.27-1.3,5.125,5.125,0,0,1-1.2-3.6v-.123A5.792,5.792,0,0,1-74.435-7.4a3.872,3.872,0,0,1,1.534-1.7,4.573,4.573,0,0,1,2.373-.593,4.116,4.116,0,0,1,2.944,1.028,3.647,3.647,0,0,1,1.09,2.786h-2.777A1.626,1.626,0,0,0-69.631-7a1.244,1.244,0,0,0-.967-.4q-1.151,0-1.345,1.468A10.357,10.357,0,0,0-72-4.649a4.068,4.068,0,0,0,.343,1.986A1.187,1.187,0,0,0-70.572-2.109Zm9.352,0a1.317,1.317,0,0,0,.967-.338,1.241,1.241,0,0,0,.334-.945h2.777A3.288,3.288,0,0,1-58.263-.826a4.168,4.168,0,0,1-2.887,1,4.22,4.22,0,0,1-3.27-1.3,5.125,5.125,0,0,1-1.2-3.6v-.123A5.792,5.792,0,0,1-65.083-7.4a3.872,3.872,0,0,1,1.534-1.7,4.573,4.573,0,0,1,2.373-.593,4.116,4.116,0,0,1,2.944,1.028,3.647,3.647,0,0,1,1.09,2.786h-2.777A1.626,1.626,0,0,0-60.28-7a1.244,1.244,0,0,0-.967-.4q-1.151,0-1.345,1.468a10.357,10.357,0,0,0-.062,1.283,4.068,4.068,0,0,0,.343,1.986A1.187,1.187,0,0,0-61.22-2.109ZM-52.765,0h-2.971V-9.51h2.971Zm-3.146-11.962A1.322,1.322,0,0,1-55.455-13a1.724,1.724,0,0,1,1.187-.4,1.724,1.724,0,0,1,1.187.4,1.322,1.322,0,0,1,.457,1.037,1.322,1.322,0,0,1-.457,1.037,1.724,1.724,0,0,1-1.187.4,1.724,1.724,0,0,1-1.187-.4A1.322,1.322,0,0,1-55.912-11.962Zm4.6,7.119a5.613,5.613,0,0,1,.554-2.536A3.96,3.96,0,0,1-49.17-9.088a4.791,4.791,0,0,1,2.435-.6A4.373,4.373,0,0,1-43.37-8.363a5.076,5.076,0,0,1,1.23,3.6v.105a4.925,4.925,0,0,1-1.235,3.529A4.384,4.384,0,0,1-46.718.176a4.434,4.434,0,0,1-3.261-1.217,4.761,4.761,0,0,1-1.327-3.3Zm2.962.185a3.538,3.538,0,0,0,.413,1.934,1.376,1.376,0,0,0,1.222.615q1.582,0,1.617-2.435v-.3q0-2.558-1.635-2.558-1.485,0-1.608,2.206ZM-38.114-9.51l.1,1.116A3.225,3.225,0,0,1-35.3-9.686a2.713,2.713,0,0,1,2.219.888,4.226,4.226,0,0,1,.76,2.672V0h-2.971V-6a1.6,1.6,0,0,0-.29-1.059A1.342,1.342,0,0,0-36.637-7.4a1.413,1.413,0,0,0-1.292.686V0h-2.962V-9.51ZM-26.082.176a4.889,4.889,0,0,1-3.542-1.305,4.507,4.507,0,0,1-1.354-3.4v-.246a5.84,5.84,0,0,1,.541-2.575,3.955,3.955,0,0,1,1.578-1.727A4.763,4.763,0,0,1-26.4-9.686a4.117,4.117,0,0,1,3.164,1.244,4.887,4.887,0,0,1,1.16,3.467v1.151h-5.889a2.135,2.135,0,0,0,.694,1.257,2.066,2.066,0,0,0,1.389.457,2.662,2.662,0,0,0,2.2-.984l1.354,1.6A3.784,3.784,0,0,1-23.9-.277,5.3,5.3,0,0,1-26.082.176ZM-26.416-7.4q-1.3,0-1.547,1.723h2.988v-.229a1.467,1.467,0,0,0-.36-1.1A1.434,1.434,0,0,0-26.416-7.4ZM-15.9-2.672a.684.684,0,0,0-.4-.606,6.016,6.016,0,0,0-1.5-.475A6.853,6.853,0,0,1-19.63-4.4a3.062,3.062,0,0,1-1.1-.971,2.319,2.319,0,0,1-.378-1.31,2.628,2.628,0,0,1,1.081-2.158,4.453,4.453,0,0,1,2.83-.848,4.934,4.934,0,0,1,3.023.853A2.666,2.666,0,0,1-13.03-6.592H-16q0-1.143-1.2-1.143a1.194,1.194,0,0,0-.782.259.8.8,0,0,0-.316.646.737.737,0,0,0,.387.642,3.654,3.654,0,0,0,1.235.4,10.671,10.671,0,0,1,1.49.378A2.706,2.706,0,0,1-13.047-2.76,2.491,2.491,0,0,1-14.2-.642,5.068,5.068,0,0,1-17.2.176a5.172,5.172,0,0,1-2.18-.439,3.645,3.645,0,0,1-1.494-1.2,2.707,2.707,0,0,1-.536-1.591h2.769a1.145,1.145,0,0,0,.439.962,1.808,1.808,0,0,0,1.081.3,1.422,1.422,0,0,0,.91-.246A.787.787,0,0,0-15.9-2.672Zm8.35-2.153a5.809,5.809,0,0,1,.976-3.56,3.211,3.211,0,0,1,2.725-1.3,2.731,2.731,0,0,1,2.145,1V-13.5H1.261V0H-1.4l-.149-1.02a2.8,2.8,0,0,1-2.32,1.2,3.205,3.205,0,0,1-2.689-1.3A5.993,5.993,0,0,1-7.554-4.825Zm2.962.185q0,2.531,1.477,2.531a1.458,1.458,0,0,0,1.406-.826V-6.557A1.419,1.419,0,0,0-3.1-7.4q-1.371,0-1.485,2.215ZM7.545.176A4.889,4.889,0,0,1,4-1.129a4.507,4.507,0,0,1-1.354-3.4v-.246A5.84,5.84,0,0,1,3.19-7.348,3.955,3.955,0,0,1,4.768-9.075a4.763,4.763,0,0,1,2.461-.611,4.117,4.117,0,0,1,3.164,1.244,4.887,4.887,0,0,1,1.16,3.467v1.151H5.665a2.135,2.135,0,0,0,.694,1.257,2.066,2.066,0,0,0,1.389.457,2.662,2.662,0,0,0,2.2-.984l1.354,1.6A3.784,3.784,0,0,1,9.729-.277,5.3,5.3,0,0,1,7.545.176ZM7.211-7.4q-1.3,0-1.547,1.723H8.653v-.229a1.467,1.467,0,0,0-.36-1.1A1.434,1.434,0,0,0,7.211-7.4ZM20.026-9.51l.1,1.116a3.27,3.27,0,0,1,2.716-1.292,2.407,2.407,0,0,1,2.435,1.433,3.165,3.165,0,0,1,2.795-1.433q2.892,0,2.971,3.5V0H28.068V-6a1.813,1.813,0,0,0-.246-1.063,1.048,1.048,0,0,0-.9-.334,1.4,1.4,0,0,0-1.31.782l.009.123V0H22.654V-5.985a1.906,1.906,0,0,0-.237-1.081,1.045,1.045,0,0,0-.905-.334,1.42,1.42,0,0,0-1.3.782V0H17.249V-9.51ZM37.332.176A4.889,4.889,0,0,1,33.79-1.129a4.507,4.507,0,0,1-1.354-3.4v-.246a5.84,5.84,0,0,1,.541-2.575,3.955,3.955,0,0,1,1.578-1.727,4.763,4.763,0,0,1,2.461-.611,4.117,4.117,0,0,1,3.164,1.244,4.887,4.887,0,0,1,1.16,3.467v1.151H35.451a2.135,2.135,0,0,0,.694,1.257,2.066,2.066,0,0,0,1.389.457,2.662,2.662,0,0,0,2.2-.984l1.354,1.6A3.784,3.784,0,0,1,39.516-.277,5.3,5.3,0,0,1,37.332.176ZM37-7.4q-1.3,0-1.547,1.723h2.988v-.229a1.467,1.467,0,0,0-.36-1.1A1.434,1.434,0,0,0,37-7.4ZM45.716-9.51V.325a3.452,3.452,0,0,1-.967,2.6,3.714,3.714,0,0,1-2.672.914,6.308,6.308,0,0,1-1.4-.149V1.45a5.667,5.667,0,0,0,.835.079A1.084,1.084,0,0,0,42.746.308V-9.51Zm-3.19-2.452A1.322,1.322,0,0,1,42.983-13a1.724,1.724,0,0,1,1.187-.4,1.724,1.724,0,0,1,1.187.4,1.322,1.322,0,0,1,.457,1.037,1.322,1.322,0,0,1-.457,1.037,1.724,1.724,0,0,1-1.187.4,1.724,1.724,0,0,1-1.187-.4A1.322,1.322,0,0,1,42.526-11.962Zm4.491,7.119a5.613,5.613,0,0,1,.554-2.536,3.96,3.96,0,0,1,1.591-1.709,4.791,4.791,0,0,1,2.435-.6,4.373,4.373,0,0,1,3.366,1.323,5.076,5.076,0,0,1,1.23,3.6v.105a4.925,4.925,0,0,1-1.235,3.529A4.384,4.384,0,0,1,51.614.176a4.434,4.434,0,0,1-3.261-1.217,4.761,4.761,0,0,1-1.327-3.3Zm2.962.185a3.538,3.538,0,0,0,.413,1.934,1.376,1.376,0,0,0,1.222.615q1.582,0,1.617-2.435v-.3Q53.231-7.4,51.6-7.4q-1.485,0-1.608,2.206ZM63.25-6.829l-.976-.07a1.752,1.752,0,0,0-1.793.879V0H57.52V-9.51H60.3l.1,1.222a2.294,2.294,0,0,1,2.083-1.4,2.888,2.888,0,0,1,.826.105ZM69.412,0a3.344,3.344,0,0,1-.281-.853A2.754,2.754,0,0,1,66.845.176,3.374,3.374,0,0,1,64.56-.637a2.588,2.588,0,0,1-.94-2.043,2.66,2.66,0,0,1,1.143-2.338,5.821,5.821,0,0,1,3.322-.791H69v-.5q0-1.316-1.134-1.316A.927.927,0,0,0,66.81-6.587H63.848a2.655,2.655,0,0,1,1.173-2.239,4.931,4.931,0,0,1,2.993-.86,4.323,4.323,0,0,1,2.874.888,3.086,3.086,0,0,1,1.081,2.435v4.21a4.311,4.311,0,0,0,.4,2V0ZM67.557-1.934a1.652,1.652,0,0,0,.918-.237A1.487,1.487,0,0,0,69-2.707V-4.228h-.861q-1.547,0-1.547,1.389a.848.848,0,0,0,.272.655A.986.986,0,0,0,67.557-1.934ZM86.972,0h-8.93V-1.934l4.113-4.324a4.909,4.909,0,0,0,1.521-2.751,1.913,1.913,0,0,0-.36-1.257A1.287,1.287,0,0,0,82.27-10.7a1.3,1.3,0,0,0-1.1.576,2.366,2.366,0,0,0-.422,1.437H77.779a4.2,4.2,0,0,1,.589-2.175A4.129,4.129,0,0,1,80-12.419a4.856,4.856,0,0,1,2.338-.562,4.777,4.777,0,0,1,3.195.958,3.42,3.42,0,0,1,1.121,2.751A4,4,0,0,1,86.375-7.8,6.456,6.456,0,0,1,85.5-6.3a22.029,22.029,0,0,1-1.912,2.1L81.936-2.285h5.036Z" transform="translate(853 3798)" fill="#12263f"/>
    <path id="Trazado_775525" data-name="Trazado 775525" d="M-21.278-4.333A4.673,4.673,0,0,1-22-1.973a4.35,4.35,0,0,1-1.85,1.586,6.3,6.3,0,0,1-2.72.563,5.025,5.025,0,0,1-3.973-1.644,6.786,6.786,0,0,1-1.45-4.641v-.633a7.746,7.746,0,0,1,.655-3.292,4.961,4.961,0,0,1,1.885-2.18,5.26,5.26,0,0,1,2.848-.769,5.516,5.516,0,0,1,3.744,1.226,4.844,4.844,0,0,1,1.608,3.379h-3.076a2.292,2.292,0,0,0-.589-1.679,2.422,2.422,0,0,0-1.687-.51,1.843,1.843,0,0,0-1.687.861,5.536,5.536,0,0,0-.562,2.751v.905A6.126,6.126,0,0,0-28.34-3.12a1.882,1.882,0,0,0,1.771.879,2.369,2.369,0,0,0,1.626-.5,2.126,2.126,0,0,0,.6-1.591ZM-14.6,0a3.344,3.344,0,0,1-.281-.853A2.754,2.754,0,0,1-17.165.176,3.374,3.374,0,0,1-19.45-.637a2.588,2.588,0,0,1-.94-2.043,2.66,2.66,0,0,1,1.143-2.338,5.821,5.821,0,0,1,3.322-.791h.914v-.5q0-1.316-1.134-1.316A.927.927,0,0,0-17.2-6.587h-2.962a2.655,2.655,0,0,1,1.173-2.239A4.931,4.931,0,0,1-16-9.686a4.323,4.323,0,0,1,2.874.888,3.086,3.086,0,0,1,1.081,2.435v4.21a4.311,4.311,0,0,0,.4,2V0Zm-1.854-1.934a1.652,1.652,0,0,0,.918-.237,1.487,1.487,0,0,0,.523-.536V-4.228h-.861q-1.547,0-1.547,1.389a.848.848,0,0,0,.272.655A.986.986,0,0,0-16.453-1.934Zm11.716.905a3.054,3.054,0,0,1-2.54,1.2,3,3,0,0,1-2.369-.91,3.826,3.826,0,0,1-.8-2.615V-9.51h2.962v6.179A1.065,1.065,0,0,0-6.3-2.109a1.548,1.548,0,0,0,1.45-.729V-9.51h2.979V0H-4.649ZM4.729-2.672a.684.684,0,0,0-.4-.606,6.016,6.016,0,0,0-1.5-.475A6.853,6.853,0,0,1,1-4.4,3.062,3.062,0,0,1-.1-5.37,2.319,2.319,0,0,1-.475-6.68,2.628,2.628,0,0,1,.606-8.837a4.453,4.453,0,0,1,2.83-.848,4.934,4.934,0,0,1,3.023.853A2.666,2.666,0,0,1,7.6-6.592H4.632q0-1.143-1.2-1.143a1.194,1.194,0,0,0-.782.259.8.8,0,0,0-.316.646.737.737,0,0,0,.387.642,3.654,3.654,0,0,0,1.235.4,10.671,10.671,0,0,1,1.49.378A2.706,2.706,0,0,1,7.585-2.76,2.491,2.491,0,0,1,6.429-.642,5.068,5.068,0,0,1,3.437.176a5.172,5.172,0,0,1-2.18-.439,3.645,3.645,0,0,1-1.494-1.2A2.707,2.707,0,0,1-.773-3.05H2a1.145,1.145,0,0,0,.439.962,1.808,1.808,0,0,0,1.081.3,1.422,1.422,0,0,0,.91-.246A.787.787,0,0,0,4.729-2.672ZM14.326,0a3.344,3.344,0,0,1-.281-.853A2.754,2.754,0,0,1,11.76.176,3.374,3.374,0,0,1,9.475-.637a2.588,2.588,0,0,1-.94-2.043A2.66,2.66,0,0,1,9.677-5.019,5.821,5.821,0,0,1,13-5.81h.914v-.5q0-1.316-1.134-1.316a.927.927,0,0,0-1.055,1.042H8.763A2.655,2.655,0,0,1,9.936-8.825a4.931,4.931,0,0,1,2.993-.86A4.323,4.323,0,0,1,15.8-8.8a3.086,3.086,0,0,1,1.081,2.435v4.21a4.311,4.311,0,0,0,.4,2V0ZM12.472-1.934a1.652,1.652,0,0,0,.918-.237,1.487,1.487,0,0,0,.523-.536V-4.228h-.861q-1.547,0-1.547,1.389a.848.848,0,0,0,.272.655A.986.986,0,0,0,12.472-1.934ZM29.522,0H26.552V-9.457L23.634-8.6v-2.25L29.25-12.8h.272Z" transform="translate(433 3430)" fill="#12263f"/>
    <path id="Trazado_775526" data-name="Trazado 775526" d="M-79.449-2.391h-4.228L-84.415,0h-3.3l4.693-12.8h2.9L-75.388,0H-78.7Zm-3.489-2.382h2.751l-1.38-4.438Zm12.366,2.663a1.317,1.317,0,0,0,.967-.338,1.241,1.241,0,0,0,.334-.945h2.777A3.288,3.288,0,0,1-67.614-.826a4.168,4.168,0,0,1-2.887,1,4.22,4.22,0,0,1-3.27-1.3,5.125,5.125,0,0,1-1.2-3.6v-.123A5.792,5.792,0,0,1-74.435-7.4a3.872,3.872,0,0,1,1.534-1.7,4.573,4.573,0,0,1,2.373-.593,4.116,4.116,0,0,1,2.944,1.028,3.647,3.647,0,0,1,1.09,2.786h-2.777A1.626,1.626,0,0,0-69.631-7a1.244,1.244,0,0,0-.967-.4q-1.151,0-1.345,1.468A10.357,10.357,0,0,0-72-4.649a4.068,4.068,0,0,0,.343,1.986A1.187,1.187,0,0,0-70.572-2.109Zm9.352,0a1.317,1.317,0,0,0,.967-.338,1.241,1.241,0,0,0,.334-.945h2.777A3.288,3.288,0,0,1-58.263-.826a4.168,4.168,0,0,1-2.887,1,4.22,4.22,0,0,1-3.27-1.3,5.125,5.125,0,0,1-1.2-3.6v-.123A5.792,5.792,0,0,1-65.083-7.4a3.872,3.872,0,0,1,1.534-1.7,4.573,4.573,0,0,1,2.373-.593,4.116,4.116,0,0,1,2.944,1.028,3.647,3.647,0,0,1,1.09,2.786h-2.777A1.626,1.626,0,0,0-60.28-7a1.244,1.244,0,0,0-.967-.4q-1.151,0-1.345,1.468a10.357,10.357,0,0,0-.062,1.283,4.068,4.068,0,0,0,.343,1.986A1.187,1.187,0,0,0-61.22-2.109ZM-52.765,0h-2.971V-9.51h2.971Zm-3.146-11.962A1.322,1.322,0,0,1-55.455-13a1.724,1.724,0,0,1,1.187-.4,1.724,1.724,0,0,1,1.187.4,1.322,1.322,0,0,1,.457,1.037,1.322,1.322,0,0,1-.457,1.037,1.724,1.724,0,0,1-1.187.4,1.724,1.724,0,0,1-1.187-.4A1.322,1.322,0,0,1-55.912-11.962Zm4.6,7.119a5.613,5.613,0,0,1,.554-2.536A3.96,3.96,0,0,1-49.17-9.088a4.791,4.791,0,0,1,2.435-.6A4.373,4.373,0,0,1-43.37-8.363a5.076,5.076,0,0,1,1.23,3.6v.105a4.925,4.925,0,0,1-1.235,3.529A4.384,4.384,0,0,1-46.718.176a4.434,4.434,0,0,1-3.261-1.217,4.761,4.761,0,0,1-1.327-3.3Zm2.962.185a3.538,3.538,0,0,0,.413,1.934,1.376,1.376,0,0,0,1.222.615q1.582,0,1.617-2.435v-.3q0-2.558-1.635-2.558-1.485,0-1.608,2.206ZM-38.114-9.51l.1,1.116A3.225,3.225,0,0,1-35.3-9.686a2.713,2.713,0,0,1,2.219.888,4.226,4.226,0,0,1,.76,2.672V0h-2.971V-6a1.6,1.6,0,0,0-.29-1.059A1.342,1.342,0,0,0-36.637-7.4a1.413,1.413,0,0,0-1.292.686V0h-2.962V-9.51ZM-26.082.176a4.889,4.889,0,0,1-3.542-1.305,4.507,4.507,0,0,1-1.354-3.4v-.246a5.84,5.84,0,0,1,.541-2.575,3.955,3.955,0,0,1,1.578-1.727A4.763,4.763,0,0,1-26.4-9.686a4.117,4.117,0,0,1,3.164,1.244,4.887,4.887,0,0,1,1.16,3.467v1.151h-5.889a2.135,2.135,0,0,0,.694,1.257,2.066,2.066,0,0,0,1.389.457,2.662,2.662,0,0,0,2.2-.984l1.354,1.6A3.784,3.784,0,0,1-23.9-.277,5.3,5.3,0,0,1-26.082.176ZM-26.416-7.4q-1.3,0-1.547,1.723h2.988v-.229a1.467,1.467,0,0,0-.36-1.1A1.434,1.434,0,0,0-26.416-7.4ZM-15.9-2.672a.684.684,0,0,0-.4-.606,6.016,6.016,0,0,0-1.5-.475A6.853,6.853,0,0,1-19.63-4.4a3.062,3.062,0,0,1-1.1-.971,2.319,2.319,0,0,1-.378-1.31,2.628,2.628,0,0,1,1.081-2.158,4.453,4.453,0,0,1,2.83-.848,4.934,4.934,0,0,1,3.023.853A2.666,2.666,0,0,1-13.03-6.592H-16q0-1.143-1.2-1.143a1.194,1.194,0,0,0-.782.259.8.8,0,0,0-.316.646.737.737,0,0,0,.387.642,3.654,3.654,0,0,0,1.235.4,10.671,10.671,0,0,1,1.49.378A2.706,2.706,0,0,1-13.047-2.76,2.491,2.491,0,0,1-14.2-.642,5.068,5.068,0,0,1-17.2.176a5.172,5.172,0,0,1-2.18-.439,3.645,3.645,0,0,1-1.494-1.2,2.707,2.707,0,0,1-.536-1.591h2.769a1.145,1.145,0,0,0,.439.962,1.808,1.808,0,0,0,1.081.3,1.422,1.422,0,0,0,.91-.246A.787.787,0,0,0-15.9-2.672Zm8.35-2.153a5.809,5.809,0,0,1,.976-3.56,3.211,3.211,0,0,1,2.725-1.3,2.731,2.731,0,0,1,2.145,1V-13.5H1.261V0H-1.4l-.149-1.02a2.8,2.8,0,0,1-2.32,1.2,3.205,3.205,0,0,1-2.689-1.3A5.993,5.993,0,0,1-7.554-4.825Zm2.962.185q0,2.531,1.477,2.531a1.458,1.458,0,0,0,1.406-.826V-6.557A1.419,1.419,0,0,0-3.1-7.4q-1.371,0-1.485,2.215ZM7.545.176A4.889,4.889,0,0,1,4-1.129a4.507,4.507,0,0,1-1.354-3.4v-.246A5.84,5.84,0,0,1,3.19-7.348,3.955,3.955,0,0,1,4.768-9.075a4.763,4.763,0,0,1,2.461-.611,4.117,4.117,0,0,1,3.164,1.244,4.887,4.887,0,0,1,1.16,3.467v1.151H5.665a2.135,2.135,0,0,0,.694,1.257,2.066,2.066,0,0,0,1.389.457,2.662,2.662,0,0,0,2.2-.984l1.354,1.6A3.784,3.784,0,0,1,9.729-.277,5.3,5.3,0,0,1,7.545.176ZM7.211-7.4q-1.3,0-1.547,1.723H8.653v-.229a1.467,1.467,0,0,0-.36-1.1A1.434,1.434,0,0,0,7.211-7.4ZM20.026-9.51l.1,1.116a3.27,3.27,0,0,1,2.716-1.292,2.407,2.407,0,0,1,2.435,1.433,3.165,3.165,0,0,1,2.795-1.433q2.892,0,2.971,3.5V0H28.068V-6a1.813,1.813,0,0,0-.246-1.063,1.048,1.048,0,0,0-.9-.334,1.4,1.4,0,0,0-1.31.782l.009.123V0H22.654V-5.985a1.906,1.906,0,0,0-.237-1.081,1.045,1.045,0,0,0-.905-.334,1.42,1.42,0,0,0-1.3.782V0H17.249V-9.51ZM37.332.176A4.889,4.889,0,0,1,33.79-1.129a4.507,4.507,0,0,1-1.354-3.4v-.246a5.84,5.84,0,0,1,.541-2.575,3.955,3.955,0,0,1,1.578-1.727,4.763,4.763,0,0,1,2.461-.611,4.117,4.117,0,0,1,3.164,1.244,4.887,4.887,0,0,1,1.16,3.467v1.151H35.451a2.135,2.135,0,0,0,.694,1.257,2.066,2.066,0,0,0,1.389.457,2.662,2.662,0,0,0,2.2-.984l1.354,1.6A3.784,3.784,0,0,1,39.516-.277,5.3,5.3,0,0,1,37.332.176ZM37-7.4q-1.3,0-1.547,1.723h2.988v-.229a1.467,1.467,0,0,0-.36-1.1A1.434,1.434,0,0,0,37-7.4ZM45.716-9.51V.325a3.452,3.452,0,0,1-.967,2.6,3.714,3.714,0,0,1-2.672.914,6.308,6.308,0,0,1-1.4-.149V1.45a5.667,5.667,0,0,0,.835.079A1.084,1.084,0,0,0,42.746.308V-9.51Zm-3.19-2.452A1.322,1.322,0,0,1,42.983-13a1.724,1.724,0,0,1,1.187-.4,1.724,1.724,0,0,1,1.187.4,1.322,1.322,0,0,1,.457,1.037,1.322,1.322,0,0,1-.457,1.037,1.724,1.724,0,0,1-1.187.4,1.724,1.724,0,0,1-1.187-.4A1.322,1.322,0,0,1,42.526-11.962Zm4.491,7.119a5.613,5.613,0,0,1,.554-2.536,3.96,3.96,0,0,1,1.591-1.709,4.791,4.791,0,0,1,2.435-.6,4.373,4.373,0,0,1,3.366,1.323,5.076,5.076,0,0,1,1.23,3.6v.105a4.925,4.925,0,0,1-1.235,3.529A4.384,4.384,0,0,1,51.614.176a4.434,4.434,0,0,1-3.261-1.217,4.761,4.761,0,0,1-1.327-3.3Zm2.962.185a3.538,3.538,0,0,0,.413,1.934,1.376,1.376,0,0,0,1.222.615q1.582,0,1.617-2.435v-.3Q53.231-7.4,51.6-7.4q-1.485,0-1.608,2.206ZM63.25-6.829l-.976-.07a1.752,1.752,0,0,0-1.793.879V0H57.52V-9.51H60.3l.1,1.222a2.294,2.294,0,0,1,2.083-1.4,2.888,2.888,0,0,1,.826.105ZM69.412,0a3.344,3.344,0,0,1-.281-.853A2.754,2.754,0,0,1,66.845.176,3.374,3.374,0,0,1,64.56-.637a2.588,2.588,0,0,1-.94-2.043,2.66,2.66,0,0,1,1.143-2.338,5.821,5.821,0,0,1,3.322-.791H69v-.5q0-1.316-1.134-1.316A.927.927,0,0,0,66.81-6.587H63.848a2.655,2.655,0,0,1,1.173-2.239,4.931,4.931,0,0,1,2.993-.86,4.323,4.323,0,0,1,2.874.888,3.086,3.086,0,0,1,1.081,2.435v4.21a4.311,4.311,0,0,0,.4,2V0ZM67.557-1.934a1.652,1.652,0,0,0,.918-.237A1.487,1.487,0,0,0,69-2.707V-4.228h-.861q-1.547,0-1.547,1.389a.848.848,0,0,0,.272.655A.986.986,0,0,0,67.557-1.934ZM84.608,0H81.637V-9.457L78.719-8.6v-2.25L84.335-12.8h.272Z" transform="translate(853 3430)" fill="#12263f"/>
  </g>
</svg>
