<svg xmlns="http://www.w3.org/2000/svg" xmlns:xlink="http://www.w3.org/1999/xlink" width="42" height="42" viewBox="0 0 42 42">
  <defs>
    <clipPath id="clip-path">
      <rect id="Rectángulo_361276" data-name="Rectángulo 361276" width="42" height="42" transform="translate(525 938)" fill="#2d54fe"/>
    </clipPath>
  </defs>
  <g id="Enmascarar_grupo_998589" data-name="Enmascarar grupo 998589" transform="translate(-525 -938)" clip-path="url(#clip-path)">
    <g id="_OUTLINE" data-name="/ OUTLINE" transform="translate(523.6 936.6)">
      <path id="Trazado_775227" data-name="Trazado 775227" d="M33.6,23.8H30.1v1.4h3.5a8.4,8.4,0,1,1-8.4,8.4V31.5H23.8v2.1a9.8,9.8,0,1,0,9.8-9.8Z" fill="#2d54fe"/>
      <path id="Trazado_775228" data-name="Trazado 775228" d="M19.6,33.6a8.4,8.4,0,1,1-8.4-8.4H14V23.8H11.2A9.8,9.8,0,1,0,21,33.6V31.5H19.6Z" fill="#2d54fe"/>
      <path id="Trazado_775229" data-name="Trazado 775229" d="M11.2,21h4.2V19.6H11.2a8.4,8.4,0,1,1,8.4-8.4v2.1H21V11.2A9.8,9.8,0,1,0,11.2,21Z" fill="#2d54fe"/>
      <path id="Trazado_775230" data-name="Trazado 775230" d="M25.2,11.2a8.4,8.4,0,1,1,8.4,8.4H30.8V21h2.8a9.8,9.8,0,1,0-9.8-9.8v2.1h1.4Z" fill="#2d54fe"/>
      <path id="Trazado_775231" data-name="Trazado 775231" d="M28,21v.48a4.868,4.868,0,0,1-1.435,3.465L25.2,26.31V30.1h1.4V26.89l.955-.955A6.259,6.259,0,0,0,29.4,21.48V21a6.3,6.3,0,1,0-12.6-.2L15.436,23.08a1.4,1.4,0,0,0,1.2,2.12H16.8v.7A2.1,2.1,0,0,0,18.9,28v2.1h1.4V26.6H18.9a.7.7,0,0,1-.7-.7V23.8H16.636L18.2,21.194V21A4.9,4.9,0,0,1,28,21Z" fill="#2d54fe"/>
      <path id="Trazado_775232" data-name="Trazado 775232" d="M8.4,5.6V7H7.7A2.1,2.1,0,0,0,5.6,9.1v5.6a2.1,2.1,0,0,0,2.1,2.1h7a2.1,2.1,0,0,0,2.1-2.1V9.1A2.1,2.1,0,0,0,14.7,7H14V5.6H12.6V7H9.8V5.6Zm7,9.1a.7.7,0,0,1-.7.7h-7a.7.7,0,0,1-.7-.7V11.2h8.4Zm-.7-6.3a.7.7,0,0,1,.7.7v.7H7V9.1a.7.7,0,0,1,.7-.7Z" fill="#2d54fe"/>
      <rect id="Rectángulo_361286" data-name="Rectángulo 361286" width="1.4" height="1.4" transform="translate(9.1 12.6)" fill="#2d54fe"/>
      <rect id="Rectángulo_361287" data-name="Rectángulo 361287" width="1.4" height="1.4" transform="translate(11.9 12.6)" fill="#2d54fe"/>
      <path id="Trazado_775233" data-name="Trazado 775233" d="M16.8,34.3V32.114L15.947,28.7H6.453L5.6,32.114V34.3h.7v2.8H5.6v1.4H16.8V37.1h-.7V34.3Zm-7-2.014.547-2.186h1.707l.546,2.186V32.9H9.8Zm-2.8,0L7.547,30.1H8.9l-.5,2.014V32.9H7ZM10.5,37.1H7.7V34.3h2.8Zm4.2,0H11.9V34.3h2.8Zm.7-4.2H14v-.786L13.5,30.1h1.357l.547,2.186Z" fill="#2d54fe"/>
      <path id="Trazado_775234" data-name="Trazado 775234" d="M28.205,34.795,33.6,40.19,39,34.795A3.67,3.67,0,1,0,33.8,29.6l-.2.205-.2-.205A3.67,3.67,0,1,0,28.2,34.8Zm.99-4.2a2.27,2.27,0,0,1,3.21,0L33.6,31.79l1.2-1.195A2.27,2.27,0,1,1,38,33.8L33.6,38.21l-4.4-4.405a2.27,2.27,0,0,1,0-3.21Z" fill="#2d54fe"/>
      <path id="Trazado_775235" data-name="Trazado 775235" d="M32.985,17.005l4.2-4.2A2.086,2.086,0,0,0,37.8,11.32V7.99l1.2-1.2-.99-.99L36.81,7H33.48a2.086,2.086,0,0,0-1.485.615l-4.2,4.2a2.1,2.1,0,0,0,0,2.97l2.22,2.22a2.1,2.1,0,0,0,2.97,0Zm-4.2-3.21a.7.7,0,0,1,0-.99l4.2-4.2A.7.7,0,0,1,33.48,8.4h1.93L33.8,10.005l.99.99,1.6-1.6v1.93a.7.7,0,0,1-.205.5l-4.2,4.2a.7.7,0,0,1-.99,0Z" fill="#2d54fe"/>
    </g>
  </g>
</svg>
